#!OML:ASF E:\Steps\Project 1\Capture day 1\Session 2\Subject.ASF
:FULLY-SPECIFIED
:DEGREES
233
root -1.13742 17.9702 21.0072 -155.352 -0.209269 178.65
lowerback -27.8868 -2.28619 -6.81626
upperback -0.0769158 -1.2185 -0.131302
thorax 14.8897 -1.20897 3.06804
lowerneck -0.376317 -8.0794 -0.834875
upperneck 15.9844 -10.4766 2.95261
head 5.0776 -4.65699 0.59738
rclavicle -5.56597e-015 -1.98785e-015
rhumerus -37.442 -14.9651 -80.432
rradius 33.539
rwrist -7.93313
rhand -11.9397 -60.5756
rfingers 7.12502
rthumb 14.1151 90.0761
lclavicle -5.56597e-015 -1.98785e-015
lhumerus -26.2646 0.168502 82.343
lradius 20.9922
lwrist -4.94438
lhand -22.1825 -13.0942
lfingers 7.12502
lthumb 4.23259 16.8435
rfemur -24.0246 6.36663 20.1629
rtibia 8.16693
rfoot -16.7099 -3.73013
rtoes -32.1938
lfemur -24.6575 -8.57035 -21.8447
ltibia 9.71046
lfoot -7.56876 -2.16118
ltoes -37.2392
234
root -1.13629 17.9712 21.0035 -155.427 -0.164536 178.669
lowerback -27.7704 -2.26701 -6.86523
upperback -0.0255692 -1.17446 -0.133274
thorax 14.8906 -1.19017 3.11299
lowerneck -0.178432 -8.04748 -0.91885
upperneck 16.0915 -10.408 2.95602
head 5.0808 -4.61934 0.621957
rclavicle -2.68359e-015 -2.94201e-014
rhumerus -37.5319 -16.1745 -79.4728
rradius 33.0901
rwrist -3.97804
rhand -5.65561 -59.9539
rfingers 7.12502
rthumb 20.1634 -88.9274
lclavicle -2.68359e-015 -2.94201e-014
lhumerus -26.2432 0.0844047 82.2674
lradius 21.1078
lwrist -4.88029
lhand -22.1054 -13.1654
lfingers 7.12502
lthumb 4.30695 16.7708
rfemur -23.9155 6.35996 20.1903
rtibia 8.14821
rfoot -16.7095 -3.65237
rtoes -31.9643
lfemur -24.5636 -8.58949 -21.8268
ltibia 9.73042
lfoot -7.56276 -2.08465
ltoes -37.5599
235
root -1.13755 17.9706 20.9966 -155.498 -0.102039 178.733
lowerback -27.8514 -2.26877 -6.88601
upperback 0.148749 -1.14337 -0.0710138
thorax 15.1339 -1.18197 3.2042
lowerneck -0.0715347 -7.94826 -1.03181
upperneck 15.9157 -10.2771 3.00115
head 5.01376 -4.56931 0.666858
rclavicle 3.27995e-015 4.85035e-014
rhumerus -37.3412 -15.985 -79.4929
rradius 33.0839
rwrist -4.19357
rhand -5.81965 -59.8279
rfingers 7.12502
rthumb 20.0057 -88.818
lclavicle 3.27995e-015 4.85035e-014
lhumerus -26.1484 0.00184209 82.3282
lradius 21.3619
lwrist -4.66897
lhand -22.1421 -12.7962
lfingers 7.12502
lthumb 4.27153 17.1407
rfemur -23.7887 6.45036 20.2423
rtibia 8.06749
rfoot -16.6725 -3.6486
rtoes -32.4187
lfemur -24.4466 -8.66155 -21.7673
ltibia 9.73006
lfoot -7.68207 -1.91488
ltoes -37.6332
236
root -1.13802 17.9699 20.9952 -155.441 -0.0986197 178.764
lowerback -27.4981 -2.25832 -6.95147
upperback -0.0390595 -1.1661 -0.013772
thorax 14.7489 -1.18929 3.30104
lowerneck 0.0312417 -7.87516 -1.18474
upperneck 16.023 -10.1596 3.03149
head 5.03651 -4.51045 0.708431
rclavicle -3.8763e-015 1.03368e-014
rhumerus -37.7154 -15.6616 -79.405
rradius 33.2775
rwrist -4.3805
rhand -6.33143 -59.0414
rfingers 7.12502
rthumb 19.5137 -88.0821
lclavicle -3.8763e-015 1.03368e-014
lhumerus -26.5828 0.193697 82.2772
lradius 21.6648
lwrist -4.62507
lhand -21.6186 -12.8449
lfingers 7.12502
lthumb 4.77709 17.0812
rfemur -23.8289 6.53839 20.2553
rtibia 8.02319
rfoot -16.6844 -3.73113
rtoes -33.0416
lfemur -24.5605 -8.68262 -21.7243
ltibia 9.84905
lfoot -7.71284 -1.88343
ltoes -37.2302
237
root -1.13785 17.9706 20.9937 -155.404 -0.112095 178.791
lowerback -27.1789 -2.24001 -6.96704
upperback -0.236575 -1.18786 -0.0134109
thorax 14.3676 -1.19173 3.30802
lowerneck 0.348464 -7.93139 -1.31604
upperneck 16.0765 -10.2192 3.14702
head 5.01465 -4.53269 0.773925
rclavicle -3.08116e-015 7.15625e-015
rhumerus -38.1511 -15.4285 -79.3759
rradius 33.4849
rwrist -4.46934
rhand -7.77425 -56.4403
rfingers 7.12502
rthumb 18.126 -85.6157
lclavicle -3.08116e-015 7.15625e-015
lhumerus -27.0491 0.451503 82.0642
lradius 21.9135
lwrist -4.63104
lhand -20.6943 -13.4831
lfingers 7.12502
lthumb 5.66949 16.4211
rfemur -23.8748 6.3344 20.3299
rtibia 8.04755
rfoot -16.7192 -3.49761
rtoes -32.4437
lfemur -24.6684 -8.78159 -21.6616
ltibia 9.98872
lfoot -7.7204 -1.8138
ltoes -36.4275
